<svg id="Calque_1" data-name="Calque 1" xmlns="http://www.w3.org/2000/svg" xmlns:xlink="http://www.w3.org/1999/xlink" viewBox="0 0 89.55 58.16"><defs><style>.cls-1{fill:#7fbf50;}.cls-2{fill:#04adbf;}.cls-3,.cls-4,.cls-5,.cls-6,.cls-7,.cls-8{opacity:0.3;}.cls-3{fill:url(#Dégradé_sans_nom_14);}.cls-4{fill:url(#Dégradé_sans_nom_14-2);}.cls-5{fill:url(#Dégradé_sans_nom_14-3);}.cls-7{fill:url(#Dégradé_sans_nom_14-4);}.cls-8{fill:url(#Dégradé_sans_nom_14-5);}</style><linearGradient id="Dégradé_sans_nom_14" x1="28.68" y1="50.51" x2="75.07" y2="50.51" gradientUnits="userSpaceOnUse"><stop offset="0" stop-opacity="0.5"/><stop offset="0.06" stop-color="#161616" stop-opacity="0.54"/><stop offset="0.26" stop-color="#595959" stop-opacity="0.68"/><stop offset="0.45" stop-color="#909090" stop-opacity="0.79"/><stop offset="0.62" stop-color="#bcbcbc" stop-opacity="0.88"/><stop offset="0.78" stop-color="#dbdbdb" stop-opacity="0.95"/><stop offset="0.91" stop-color="#eee" stop-opacity="0.99"/><stop offset="1" stop-color="#f5f5f5"/></linearGradient><linearGradient id="Dégradé_sans_nom_14-2" x1="74.55" y1="56.57" x2="44.35" y2="56.57" xlink:href="#Dégradé_sans_nom_14"/><linearGradient id="Dégradé_sans_nom_14-3" x1="28.06" y1="59.14" x2="44.56" y2="59.14" xlink:href="#Dégradé_sans_nom_14"/><linearGradient id="Dégradé_sans_nom_14-4" x1="29.93" y1="33.76" x2="53.99" y2="33.76" xlink:href="#Dégradé_sans_nom_14"/><linearGradient id="Dégradé_sans_nom_14-5" x1="27.85" y1="50.36" x2="74.24" y2="50.36" xlink:href="#Dégradé_sans_nom_14"/></defs><ellipse class="cls-1" cx="48.49" cy="52.75" rx="44.96" ry="19.03" transform="translate(-8.81 -8.88) rotate(-5.81)"/><path class="cls-2" d="M44.35,63.24s1.75,1.53,4.36-.3,19.1-11.51,19.1-11.51l6.61-4-.17,2.21L47.5,65.22A4,4,0,0,1,44.21,65" transform="translate(-3.72 -14.06)"/><path class="cls-2" d="M28,53.31s-.6,2.18.46,2.74,15.72,9,15.72,9l.14-1.76Z" transform="translate(-3.72 -14.06)"/><path class="cls-2" d="M28.58,53.06,55.15,37.7s1.9-.86,2.87-.3,15.8,9.05,15.8,9.05,1.47,1.29-.19,1.72S47.38,63.65,47.38,63.65s-.68.74-3.43-.49S28,53.31,28,53.31Z" transform="translate(-3.72 -14.06)"/><path class="cls-2" d="M27.6,28.76,53.66,14.21a1.17,1.17,0,0,1,1.74,1l.4,21.47a1.19,1.19,0,0,1-.58,1L29.07,52.79a1.16,1.16,0,0,1-1.74-1l-.33-22A1.15,1.15,0,0,1,27.6,28.76Z" transform="translate(-3.72 -14.06)"/><path class="cls-2" d="M30.4,29.82,52.18,17.67a1,1,0,0,1,1.45.83L54,36.44a1,1,0,0,1-.49.87L31.64,49.9a1,1,0,0,1-1.46-.83L29.9,30.69A1,1,0,0,1,30.4,29.82Z" transform="translate(-3.72 -14.06)"/><path class="cls-3" d="M29.23,53,55.8,37.67s1.89-.85,2.87-.3,15.79,9.06,15.79,9.06,1.47,1.28-.18,1.71S48,63.63,48,63.63s-.67.73-3.42-.49-15.92-9.85-15.92-9.85Z" transform="translate(-3.72 -14.06)"/><path class="cls-4" d="M44.49,63.35s1.75,1.53,4.35-.3S68,51.54,68,51.54l6.6-4-.16,2.21L47.64,65.33a4,4,0,0,1-3.29-.22" transform="translate(-3.72 -14.06)"/><path class="cls-5" d="M28.23,53.29s-.6,2.18.46,2.74,15.73,9,15.73,9l.14-1.76Z" transform="translate(-3.72 -14.06)"/><path class="cls-6" d="M27.66,29.09,53.72,14.54a1.17,1.17,0,0,1,1.74,1L55.86,37a1.17,1.17,0,0,1-.59,1L29.13,53.12a1.16,1.16,0,0,1-1.74-1l-.33-22A1.14,1.14,0,0,1,27.66,29.09Z" transform="translate(-3.72 -14.06)"/><path class="cls-7" d="M30.43,29.8,52.2,17.64a1,1,0,0,1,1.45.84L54,36.42a1,1,0,0,1-.49.86L31.66,49.87A1,1,0,0,1,30.2,49l-.27-18.38A.94.94,0,0,1,30.43,29.8Z" transform="translate(-3.72 -14.06)"/><path class="cls-8" d="M28.41,52.89,55,37.52s1.9-.85,2.88-.3,15.79,9.06,15.79,9.06,1.47,1.28-.18,1.71S47.2,63.48,47.2,63.48s-.67.73-3.43-.49-15.92-9.85-15.92-9.85Z" transform="translate(-3.72 -14.06)"/></svg>