<svg id="Calque_1" data-name="Calque 1" xmlns="http://www.w3.org/2000/svg" xmlns:xlink="http://www.w3.org/1999/xlink" viewBox="0 0 100.38 71.29"><defs><style>.cls-1{fill:#7fbf50;}.cls-2{fill:#04adbf;}.cls-3{fill:url(#Dégradé_sans_nom_18);}.cls-4{fill:#0560aa;opacity:0.5;}</style><linearGradient id="Dégradé_sans_nom_18" x1="28.43" y1="44.01" x2="47.64" y2="24.8" gradientUnits="userSpaceOnUse"><stop offset="0" stop-color="#fff"/><stop offset="1" stop-color="#04adbf"/></linearGradient></defs><ellipse class="cls-1" cx="49.55" cy="72.33" rx="50.4" ry="21.33" transform="translate(-6.43 -17.48) rotate(-5.81)"/><polygon class="cls-2" points="43.83 56.07 64.64 44.71 64.64 7.39 43.53 18.94 43.83 56.07"/><polygon class="cls-2" points="32.7 12.03 43.53 18.94 64.64 7.39 52.55 0 32.7 12.03"/><polygon class="cls-2" points="43.83 56.07 31.8 49.43 32.7 12.03 43.53 18.94 43.83 56.07"/><polygon class="cls-3" points="32.9 48.48 42.72 53.84 42.5 19.66 33.68 14.63 32.9 48.48"/><polygon class="cls-4" points="33.58 16.03 42.57 21.04 42.73 19.52 33.53 14.37 33.58 16.03"/><polygon class="cls-4" points="33.6 18.69 42.6 23.69 42.75 22.17 33.55 17.02 33.6 18.69"/><polygon class="cls-4" points="33.49 21.05 42.48 26.05 42.64 24.54 33.44 19.38 33.49 21.05"/><polygon class="cls-4" points="33.52 23.7 42.51 28.7 42.66 27.19 33.47 22.04 33.52 23.7"/><polygon class="cls-4" points="33.49 26.1 42.48 31.11 42.64 29.59 33.44 24.43 33.49 26.1"/><polygon class="cls-4" points="33.26 28.67 42.75 33.84 42.88 32.32 33.18 26.99 33.26 28.67"/><polygon class="cls-4" points="33.19 31.17 43.05 36.47 43.17 34.94 33.09 29.49 33.19 31.17"/><polygon class="cls-4" points="33.22 33.83 42.8 39.03 42.94 37.51 33.13 32.15 33.22 33.83"/><polygon class="cls-4" points="33.02 36.52 42.78 41.78 42.91 40.26 32.93 34.84 33.02 36.52"/><polygon class="cls-4" points="33.11 39.2 42.88 44.46 43 42.94 33.02 37.52 33.11 39.2"/><polygon class="cls-4" points="32.87 42.03 42.63 47.29 42.76 45.77 32.77 40.35 32.87 42.03"/><polygon class="cls-4" points="32.96 44.71 42.72 49.97 42.85 48.44 32.87 43.02 32.96 44.71"/><polygon class="cls-4" points="32.87 47.3 42.9 52.65 43.01 51.12 32.76 45.61 32.87 47.3"/><polygon class="cls-4" points="32.98 49.98 43.01 55.33 43.13 53.8 32.88 48.3 32.98 49.98"/></svg>