<svg id="Calque_1" data-name="Calque 1" xmlns="http://www.w3.org/2000/svg" xmlns:xlink="http://www.w3.org/1999/xlink" viewBox="0 0 100.38 77.95"><defs><style>.cls-1{fill:#7fbf50;}.cls-2{fill:#04adbf;}.cls-10,.cls-3,.cls-8,.cls-9{opacity:0.3;}.cls-3{fill:url(#Dégradé_sans_nom_17);}.cls-11,.cls-12,.cls-4{opacity:0.5;}.cls-4{fill:url(#Dégradé_sans_nom_14);}.cls-5{opacity:0.2;fill:url(#Dégradé_sans_nom_8);}.cls-6{opacity:0.1;}.cls-7{opacity:0.25;fill:url(#Dégradé_sans_nom);}.cls-8{fill:url(#Dégradé_sans_nom_8-2);}.cls-9{fill:url(#Dégradé_sans_nom_8-3);}.cls-10{fill:url(#Dégradé_sans_nom_9);}.cls-11{fill:url(#Dégradé_sans_nom_14-2);}.cls-12{fill:url(#Dégradé_sans_nom_14-3);}</style><linearGradient id="Dégradé_sans_nom_17" x1="38.82" y1="0.39" x2="38.82" y2="54.13" gradientUnits="userSpaceOnUse"><stop offset="0"/><stop offset="0.03" stop-color="#0c0c0c"/><stop offset="0.18" stop-color="#494949"/><stop offset="0.34" stop-color="#7d7d7d"/><stop offset="0.49" stop-color="#a8a8a8"/><stop offset="0.63" stop-color="#cacaca"/><stop offset="0.77" stop-color="#e2e2e2"/><stop offset="0.89" stop-color="#f0f0f0"/><stop offset="1" stop-color="#f5f5f5"/></linearGradient><linearGradient id="Dégradé_sans_nom_14" x1="26.32" y1="26.94" x2="26.32" y2="71.44" gradientUnits="userSpaceOnUse"><stop offset="0" stop-opacity="0.5"/><stop offset="0.06" stop-color="#161616" stop-opacity="0.54"/><stop offset="0.26" stop-color="#595959" stop-opacity="0.68"/><stop offset="0.45" stop-color="#909090" stop-opacity="0.79"/><stop offset="0.62" stop-color="#bcbcbc" stop-opacity="0.88"/><stop offset="0.78" stop-color="#dbdbdb" stop-opacity="0.95"/><stop offset="0.91" stop-color="#eee" stop-opacity="0.99"/><stop offset="1" stop-color="#f5f5f5"/></linearGradient><linearGradient id="Dégradé_sans_nom_8" x1="103.1" y1="48.52" x2="103.27" y2="48.52" gradientUnits="userSpaceOnUse"><stop offset="0"/><stop offset="0.06" stop-color="#161616"/><stop offset="0.26" stop-color="#595959"/><stop offset="0.45" stop-color="#909090"/><stop offset="0.62" stop-color="#bcbcbc"/><stop offset="0.78" stop-color="#dbdbdb"/><stop offset="0.91" stop-color="#eee"/><stop offset="1" stop-color="#f5f5f5"/></linearGradient><linearGradient id="Dégradé_sans_nom" x1="49.2" y1="23.32" x2="91.59" y2="23.32" gradientUnits="userSpaceOnUse"><stop offset="0" stop-color="#fff"/><stop offset="1"/></linearGradient><linearGradient id="Dégradé_sans_nom_8-2" x1="49.02" y1="49.47" x2="67.31" y2="49.47" xlink:href="#Dégradé_sans_nom_8"/><linearGradient id="Dégradé_sans_nom_8-3" x1="69.86" y1="49.97" x2="92.16" y2="49.97" xlink:href="#Dégradé_sans_nom_8"/><linearGradient id="Dégradé_sans_nom_9" x1="68.69" y1="68.26" x2="68.69" y2="29.93" gradientUnits="userSpaceOnUse"><stop offset="0"/><stop offset="0.06" stop-color="#272727"/><stop offset="0.15" stop-color="#575757"/><stop offset="0.25" stop-color="#818181"/><stop offset="0.35" stop-color="#a5a5a5"/><stop offset="0.45" stop-color="#c2c2c2"/><stop offset="0.56" stop-color="#d9d9d9"/><stop offset="0.68" stop-color="#e9e9e9"/><stop offset="0.82" stop-color="#f2f2f2"/><stop offset="1" stop-color="#f5f5f5"/></linearGradient><linearGradient id="Dégradé_sans_nom_14-2" x1="15.02" y1="31.63" x2="15.02" y2="60.57" xlink:href="#Dégradé_sans_nom_14"/><linearGradient id="Dégradé_sans_nom_14-3" x1="42.35" y1="46.19" x2="42.35" y2="76.75" xlink:href="#Dégradé_sans_nom_14"/></defs><ellipse class="cls-1" cx="50.01" cy="57.56" rx="50.4" ry="21.33" transform="translate(-5.39 3.92) rotate(-5.81)"/><polyline class="cls-2" points="88.54 39.39 88.56 57.16 74.17 66.28 73.85 47.75 87.37 40.03"/><polygon class="cls-2" points="19.99 63.83 19.97 26.38 33 34.08 32.88 71.44 19.99 63.83"/><polyline class="cls-2" points="67.13 29.93 69.86 31.68 70.26 68.26 67.31 66.11 67.13 29.93"/><polyline class="cls-2" points="48.98 53.75 67.15 22.36 67.27 65.85 49.32 76.07 48.98 53.75"/><polygon class="cls-2" points="74.17 66.28 74.05 47.85 88.54 39.39 88.65 57.59 92.36 55.96 91.79 34.73 70.06 31.78 70.46 68.36 74.17 66.28"/><polyline class="cls-2" points="67.13 29.93 69.86 31.68 91.59 34.63 53.46 12.72 49.2 12.01 67.15 22.36 67.13 29.93"/><polygon class="cls-2" points="19.75 26.94 32.78 34.64 49.49 24.58 35.72 46.17 48.98 53.75 67.15 22.36 28.09 0 10.14 31.63 19.89 37.27 19.75 26.94"/><polygon class="cls-2" points="33 34.08 49.49 24.58 35.72 46.17 36.08 69.93 32.87 71.86 33 34.08"/><polygon class="cls-2" points="9.98 55.54 10.14 31.63 19.89 37.27 20.05 60.57 9.98 55.54"/><polygon class="cls-2" points="36.08 69.93 35.72 46.17 49.16 53.45 49.33 76.75 36.08 69.93"/><polygon class="cls-3" points="19.93 27.33 32.95 35.03 49.66 24.96 35.89 46.55 49.15 54.13 67.32 22.74 28.26 0.39 10.31 32.01 20.07 37.66 19.93 27.33"/><polygon class="cls-4" points="19.99 63.83 19.75 26.94 32.78 34.64 32.88 71.44 19.99 63.83"/><path class="cls-2" d="M76.4,23.89" transform="translate(0.18 -1.44)"/><polygon class="cls-5" points="32.67 34.39 49.16 24.88 35.38 46.47 35.75 70.24 32.54 72.16 32.67 34.39"/><polygon class="cls-6" points="35.72 46.17 39.57 48.44 49.49 24.58 35.72 46.17"/><polygon class="cls-7" points="49.2 12.01 67.15 22.36 67.13 29.93 69.86 31.68 91.59 34.63 53.46 12.72 49.2 12.01"/><polyline class="cls-8" points="49.02 54 67.19 22.61 67.31 66.11 49.36 76.33 49.02 54"/><polygon class="cls-9" points="73.97 66.18 73.85 47.75 88.34 39.29 88.45 57.49 92.16 55.86 91.59 34.63 69.86 31.68 70.26 68.26 73.97 66.18"/><polygon class="cls-10" points="70.26 68.26 69.86 31.68 67.13 29.93 67.31 66.11 70.26 68.26"/><polygon class="cls-11" points="9.98 55.54 10.14 31.63 19.89 37.27 20.05 60.57 9.98 55.54"/><polygon class="cls-12" points="35.37 69.54 35.48 46.19 48.98 53.75 49.33 76.75 35.37 69.54"/></svg>