<svg id="Capa_1" enable-background="new 0 0 512 512" height="512" viewBox="0 0 512 512" width="512" xmlns="http://www.w3.org/2000/svg"><g><g><path d="m256 421.928c-91.493 0-165.928-74.435-165.928-165.928s74.435-165.928 165.928-165.928 165.928 74.435 165.928 165.928-74.435 165.928-165.928 165.928zm0-301.856c-74.951 0-135.928 60.977-135.928 135.928s60.977 135.928 135.928 135.928 135.928-60.977 135.928-135.928-60.977-135.928-135.928-135.928z"/></g><g><path d="m241 0h30v60.072h-30z"/></g><g><path d="m128.018 30.273h30v60.072h-30z" transform="matrix(.866 -.5 .5 .866 -10.994 79.589)"/></g><g><path d="m45.309 112.982h30v60.072h-30z" transform="matrix(.5 -.866 .866 .5 -93.703 123.738)"/></g><g><path d="m0 241h60.072v30h-60.072z"/></g><g><path d="m30.273 353.982h60.072v30h-60.072z" transform="matrix(.866 -.5 .5 .866 -176.413 79.59)"/></g><g><path d="m112.982 436.691h60.072v30h-60.072z" transform="matrix(.5 -.866 .866 .5 -319.666 349.7)"/></g><g><path d="m241 451.928h30v60.072h-30z"/></g><g><path d="m353.982 421.655h30v60.072h-30z" transform="matrix(.866 -.5 .5 .866 -176.411 245.007)"/></g><g><path d="m436.691 338.946h30v60.072h-30z" transform="matrix(.5 -.866 .866 .5 -93.704 575.663)"/></g><g><path d="m451.928 241h60.072v30h-60.072z"/></g><g><path d="m421.655 128.018h60.072v30h-60.072z" transform="matrix(.866 -.5 .5 .866 -10.994 245.008)"/></g><g><path d="m338.946 45.309h60.072v30h-60.072z" transform="matrix(.5 -.866 .866 .5 132.26 349.701)"/></g><g><path d="m240.989 306.478h30.023v30h-30.023z"/></g><g><path d="m219.725 285.201-21.213-21.213c15.376-15.376 35.792-23.844 57.489-23.844 21.695 0 42.111 8.467 57.488 23.843l-21.213 21.214c-9.71-9.709-22.593-15.057-36.275-15.057-13.683 0-26.566 5.348-36.276 15.057z"/></g><g><path d="m177.319 242.795-21.214-21.213c26.721-26.722 62.198-41.438 99.896-41.438 37.695 0 73.172 14.715 99.894 41.435l-21.213 21.214c-21.055-21.054-48.998-32.649-78.681-32.649-29.684 0-57.627 11.596-78.682 32.651z"/></g></g></svg>