<svg id="Calque_1" data-name="Calque 1" xmlns="http://www.w3.org/2000/svg" xmlns:xlink="http://www.w3.org/1999/xlink" viewBox="0 0 199.27 146.16"><defs><style>.cls-1{font-size:3.72px;fill:#fff;font-family:MyriadPro-Regular, Myriad Pro;}.cls-2,.cls-3{fill:#04adbf;}.cls-10,.cls-18,.cls-19,.cls-20,.cls-3{opacity:0.5;}.cls-14,.cls-15,.cls-16,.cls-21,.cls-4,.cls-5,.cls-6,.cls-7,.cls-8,.cls-9{opacity:0.3;}.cls-4{fill:url(#Dégradé_sans_nom_17);}.cls-5{fill:url(#Dégradé_sans_nom_14);}.cls-6{fill:url(#Dégradé_sans_nom_14-2);}.cls-7{fill:url(#Dégradé_sans_nom_14-3);}.cls-9{fill:url(#Dégradé_sans_nom_14-4);}.cls-10{fill:url(#Dégradé_sans_nom_14-5);}.cls-11{opacity:0.2;fill:url(#Dégradé_sans_nom_8);}.cls-12{opacity:0.1;}.cls-13{opacity:0.25;fill:url(#Dégradé_sans_nom);}.cls-14{fill:url(#Dégradé_sans_nom_8-2);}.cls-15{fill:url(#Dégradé_sans_nom_8-3);}.cls-16{fill:url(#Dégradé_sans_nom_9);}.cls-17{fill:url(#Dégradé_sans_nom_18);}.cls-18{fill:#0560aa;}.cls-19{fill:url(#Dégradé_sans_nom_14-6);}.cls-20{fill:url(#Dégradé_sans_nom_14-7);}.cls-21{fill:url(#Dégradé_sans_nom_14-8);}</style><linearGradient id="Dégradé_sans_nom_17" x1="87.55" y1="17.12" x2="87.55" y2="81.98" gradientUnits="userSpaceOnUse"><stop offset="0"/><stop offset="0.03" stop-color="#0c0c0c"/><stop offset="0.18" stop-color="#494949"/><stop offset="0.34" stop-color="#7d7d7d"/><stop offset="0.49" stop-color="#a8a8a8"/><stop offset="0.63" stop-color="#cacaca"/><stop offset="0.77" stop-color="#e2e2e2"/><stop offset="0.89" stop-color="#f0f0f0"/><stop offset="1" stop-color="#f5f5f5"/></linearGradient><linearGradient id="Dégradé_sans_nom_14" x1="2.09" y1="153.36" x2="59.94" y2="153.36" gradientUnits="userSpaceOnUse"><stop offset="0" stop-opacity="0.5"/><stop offset="0.06" stop-color="#161616" stop-opacity="0.54"/><stop offset="0.26" stop-color="#595959" stop-opacity="0.68"/><stop offset="0.45" stop-color="#909090" stop-opacity="0.79"/><stop offset="0.62" stop-color="#bcbcbc" stop-opacity="0.88"/><stop offset="0.78" stop-color="#dbdbdb" stop-opacity="0.95"/><stop offset="0.91" stop-color="#eee" stop-opacity="0.99"/><stop offset="1" stop-color="#f5f5f5"/></linearGradient><linearGradient id="Dégradé_sans_nom_14-2" x1="59.3" y1="160.92" x2="21.64" y2="160.92" xlink:href="#Dégradé_sans_nom_14"/><linearGradient id="Dégradé_sans_nom_14-3" x1="1.32" y1="164.12" x2="21.89" y2="164.12" xlink:href="#Dégradé_sans_nom_14"/><linearGradient id="Dégradé_sans_nom_14-4" x1="3.65" y1="132.47" x2="33.65" y2="132.47" xlink:href="#Dégradé_sans_nom_14"/><linearGradient id="Dégradé_sans_nom_14-5" x1="72.47" y1="49.17" x2="72.47" y2="102.86" xlink:href="#Dégradé_sans_nom_14"/><linearGradient id="Dégradé_sans_nom_8" x1="165.12" y1="75.21" x2="165.33" y2="75.21" gradientUnits="userSpaceOnUse"><stop offset="0"/><stop offset="0.06" stop-color="#161616"/><stop offset="0.26" stop-color="#595959"/><stop offset="0.45" stop-color="#909090"/><stop offset="0.62" stop-color="#bcbcbc"/><stop offset="0.78" stop-color="#dbdbdb"/><stop offset="0.91" stop-color="#eee"/><stop offset="1" stop-color="#f5f5f5"/></linearGradient><linearGradient id="Dégradé_sans_nom" x1="100.08" y1="44.8" x2="151.23" y2="44.8" gradientUnits="userSpaceOnUse"><stop offset="0" stop-color="#fff"/><stop offset="1"/></linearGradient><linearGradient id="Dégradé_sans_nom_8-2" x1="99.86" y1="76.36" x2="121.94" y2="76.36" xlink:href="#Dégradé_sans_nom_8"/><linearGradient id="Dégradé_sans_nom_8-3" x1="125.01" y1="76.96" x2="151.92" y2="76.96" xlink:href="#Dégradé_sans_nom_8"/><linearGradient id="Dégradé_sans_nom_9" x1="123.6" y1="99.03" x2="123.6" y2="52.78" gradientUnits="userSpaceOnUse"><stop offset="0"/><stop offset="0.06" stop-color="#272727"/><stop offset="0.15" stop-color="#575757"/><stop offset="0.25" stop-color="#818181"/><stop offset="0.35" stop-color="#a5a5a5"/><stop offset="0.45" stop-color="#c2c2c2"/><stop offset="0.56" stop-color="#d9d9d9"/><stop offset="0.68" stop-color="#e9e9e9"/><stop offset="0.82" stop-color="#f2f2f2"/><stop offset="1" stop-color="#f5f5f5"/></linearGradient><linearGradient id="Dégradé_sans_nom_18" x1="159.65" y1="48.15" x2="180.67" y2="27.13" gradientUnits="userSpaceOnUse"><stop offset="0" stop-color="#fff"/><stop offset="1" stop-color="#04adbf"/></linearGradient><linearGradient id="Dégradé_sans_nom_14-6" x1="58.84" y1="54.82" x2="58.84" y2="89.75" xlink:href="#Dégradé_sans_nom_14"/><linearGradient id="Dégradé_sans_nom_14-7" x1="91.81" y1="72.4" x2="91.81" y2="109.28" xlink:href="#Dégradé_sans_nom_14"/><linearGradient id="Dégradé_sans_nom_14-8" x1="1.07" y1="153.18" x2="58.91" y2="153.18" xlink:href="#Dégradé_sans_nom_14"/></defs><text class="cls-1" transform="translate(46.6 115.26) rotate(-31.24)">0</text><text class="cls-1" transform="translate(48.22 114.28) rotate(-31.25)">1</text><text class="cls-1" transform="matrix(0.85, -0.52, 0.52, 0.85, 49.87, 113.28)">0</text><text class="cls-1" transform="matrix(0.85, -0.52, 0.52, 0.85, 51.5, 112.29)">1</text><text class="cls-1" transform="matrix(0.85, -0.52, 0.52, 0.85, 53.1, 111.32)">0</text><text class="cls-1" transform="matrix(0.85, -0.52, 0.52, 0.85, 54.74, 110.32)">1</text><text class="cls-1" transform="matrix(0.85, -0.52, 0.52, 0.85, 56.38, 109.33)">0</text><text class="cls-1" transform="matrix(0.85, -0.52, 0.52, 0.85, 58, 108.34)">1</text><text class="cls-1" transform="translate(59.64 107.35) rotate(-31.24)">0</text><text class="cls-1" transform="matrix(0.85, -0.52, 0.52, 0.85, 61.26, 106.37)">1</text><text class="cls-1" transform="translate(62.9 105.37) rotate(-31.24)">0</text><text class="cls-1" transform="matrix(0.85, -0.52, 0.52, 0.85, 64.54, 104.38)">1</text><text class="cls-1" transform="matrix(0.85, -0.52, 0.52, 0.85, 66.14, 103.41)">0</text><text class="cls-1" transform="matrix(0.85, -0.52, 0.52, 0.85, 67.78, 102.41)">1</text><text class="cls-1" transform="matrix(0.85, -0.52, 0.52, 0.85, 69.41, 101.42)">0</text><text class="cls-1" transform="matrix(0.85, -0.52, 0.52, 0.85, 71.05, 100.43)">1</text><polygon class="cls-2" points="176.5 61.35 199.27 48.92 199.27 8.09 176.18 20.72 176.5 61.35"/><polygon class="cls-2" points="164.33 13.16 176.18 20.72 199.27 8.09 186.04 0 164.33 13.16"/><polygon class="cls-3" points="176.5 61.35 163.34 54.08 164.33 13.16 176.18 20.72 176.5 61.35"/><text class="cls-1" transform="translate(152.12 67.35) rotate(-31.24)">0</text><text class="cls-1" transform="matrix(0.85, -0.52, 0.52, 0.85, 153.74, 66.37)">1</text><text class="cls-1" transform="matrix(0.85, -0.52, 0.52, 0.85, 155.39, 65.36)">0</text><text class="cls-1" transform="matrix(0.85, -0.52, 0.52, 0.85, 157.02, 64.38)">1</text><text class="cls-1" transform="matrix(0.85, -0.52, 0.52, 0.85, 158.62, 63.4)">0</text><text class="cls-1" transform="matrix(0.85, -0.52, 0.52, 0.85, 160.26, 62.41)">1</text><text class="cls-1" transform="translate(161.9 61.41) rotate(-31.24)">0</text><text class="cls-1" transform="matrix(0.85, -0.52, 0.52, 0.85, 163.53, 60.43)">1</text><text class="cls-1" transform="translate(165.16 59.44) rotate(-31.24)">0</text><text class="cls-1" transform="matrix(0.85, -0.52, 0.52, 0.85, 166.78, 58.45)">1</text><path class="cls-2" d="M21.64,169.23s2.18,1.91,5.43-.37S50.89,154.5,50.89,154.5l8.24-5-.2,2.76L25.56,171.7a5,5,0,0,1-4.09-.27" transform="translate(0 -26)"/><path class="cls-2" d="M1.28,156.85s-.75,2.72.58,3.42,19.61,11.16,19.61,11.16l.17-2.2Z" transform="translate(0 -26)"/><path class="cls-2" d="M2,156.54,35.1,137.39s2.37-1.07,3.59-.39,19.69,11.3,19.69,11.3,1.83,1.6-.23,2.14-32.74,19.31-32.74,19.31-.84.91-4.28-.61S1.28,156.85,1.28,156.85Z" transform="translate(0 -26)"/><path class="cls-2" d="M.74,126.23l32.51-18.14a1.46,1.46,0,0,1,2.16,1.24l.5,26.79a1.44,1.44,0,0,1-.73,1.28L2.59,156.2A1.45,1.45,0,0,1,.41,155L0,127.53A1.48,1.48,0,0,1,.74,126.23Z" transform="translate(0 -26)"/><path class="cls-2" d="M4.24,127.56,31.4,112.4a1.21,1.21,0,0,1,1.8,1l.42,22.38a1.19,1.19,0,0,1-.61,1.07L5.78,152.59a1.21,1.21,0,0,1-1.82-1l-.34-22.92A1.21,1.21,0,0,1,4.24,127.56Z" transform="translate(0 -26)"/><polyline class="cls-3" points="147.55 64.19 147.58 85.64 130.21 96.63 129.83 74.28 146.14 64.96"/><polygon class="cls-2" points="64.84 93.68 64.81 48.49 80.53 57.79 80.39 102.86 64.84 93.68"/><polyline class="cls-2" points="121.71 52.78 125.01 54.89 125.49 99.03 121.94 96.43 121.71 52.78"/><polyline class="cls-2" points="99.81 81.52 121.74 43.64 121.89 96.12 100.22 108.46 99.81 81.52"/><polygon class="cls-2" points="130.21 96.63 130.07 74.4 147.55 64.19 147.69 86.15 152.16 84.19 151.47 58.56 125.25 55.01 125.73 99.15 130.21 96.63"/><polyline class="cls-2" points="121.71 52.78 125.01 54.89 151.23 58.44 105.22 32.01 100.08 31.16 121.74 43.64 121.71 52.78"/><polygon class="cls-2" points="64.55 49.17 80.27 58.46 100.43 46.32 83.81 72.37 99.81 81.52 121.74 43.64 74.6 16.66 52.95 54.82 64.72 61.64 64.55 49.17"/><polygon class="cls-2" points="80.53 57.79 100.43 46.32 83.81 72.37 84.25 101.05 80.38 103.37 80.53 57.79"/><polygon class="cls-2" points="52.76 83.68 52.95 54.82 64.72 61.64 64.91 89.75 52.76 83.68"/><polygon class="cls-2" points="84.25 101.05 83.81 72.37 100.04 81.16 100.23 109.28 84.25 101.05"/><polygon class="cls-4" points="64.75 49.63 80.47 58.93 100.64 46.78 84.02 72.84 100.02 81.98 121.95 44.1 74.81 17.13 53.16 55.29 64.93 62.1 64.75 49.63"/><path class="cls-5" d="M2.78,156.51l33.13-19.16s2.37-1.07,3.59-.38,19.69,11.3,19.69,11.3,1.83,1.6-.23,2.13-32.74,19.31-32.74,19.31-.84.92-4.28-.61S2.09,156.82,2.09,156.82Z" transform="translate(0 -26)"/><path class="cls-6" d="M21.81,169.36s2.18,1.92,5.43-.36,23.82-14.36,23.82-14.36l8.24-5-.2,2.76-33.37,19.4a4.94,4.94,0,0,1-4.09-.27" transform="translate(0 -26)"/><path class="cls-7" d="M1.54,156.83s-.76,2.72.57,3.41S21.72,171.4,21.72,171.4l.17-2.19Z" transform="translate(0 -26)"/><path class="cls-8" d="M.82,126.64l32.5-18.14a1.46,1.46,0,0,1,2.17,1.24L36,136.53a1.43,1.43,0,0,1-.72,1.28l-32.6,18.8a1.46,1.46,0,0,1-2.18-1.24L.07,127.93A1.47,1.47,0,0,1,.82,126.64Z" transform="translate(0 -26)"/><path class="cls-9" d="M4.27,127.53l27.16-15.16a1.21,1.21,0,0,1,1.8,1l.42,22.38a1.19,1.19,0,0,1-.61,1.07L5.81,152.56a1.22,1.22,0,0,1-1.82-1l-.34-22.92A1.23,1.23,0,0,1,4.27,127.53Z" transform="translate(0 -26)"/><polygon class="cls-10" points="64.84 93.68 64.55 49.17 80.27 58.46 80.39 102.86 64.84 93.68"/><path class="cls-2" d="M133.13,69.75" transform="translate(0 -26)"/><polygon class="cls-11" points="80.13 58.15 100.03 46.68 83.41 72.74 83.85 101.41 79.97 103.74 80.13 58.15"/><polygon class="cls-12" points="83.81 72.37 88.46 75.11 100.43 46.32 83.81 72.37"/><polygon class="cls-13" points="100.08 31.16 121.74 43.64 121.71 52.78 125.01 54.89 151.23 58.44 105.22 32.01 100.08 31.16"/><polyline class="cls-14" points="99.86 81.83 121.79 43.95 121.94 96.43 100.27 108.77 99.86 81.83"/><polygon class="cls-15" points="129.97 96.52 129.83 74.28 147.31 64.08 147.45 86.03 151.92 84.07 151.23 58.44 125.01 54.89 125.49 99.03 129.97 96.52"/><polygon class="cls-16" points="125.49 99.03 125.01 54.89 121.71 52.78 121.94 96.43 125.49 99.03"/><polygon class="cls-17" points="164.54 53.04 175.29 58.9 175.05 21.51 165.4 16.01 164.54 53.04"/><polygon class="cls-18" points="165.29 17.54 175.13 23.02 175.29 21.36 165.23 15.72 165.29 17.54"/><polygon class="cls-18" points="165.32 20.45 175.16 25.92 175.32 24.26 165.26 18.62 165.32 20.45"/><polygon class="cls-18" points="165.19 23.03 175.03 28.5 175.2 26.84 165.14 21.2 165.19 23.03"/><polygon class="cls-18" points="165.22 25.93 175.06 31.41 175.23 29.75 165.16 24.11 165.22 25.93"/><polygon class="cls-18" points="165.19 28.56 175.03 34.03 175.2 32.37 165.14 26.73 165.19 28.56"/><polygon class="cls-18" points="164.94 31.37 175.32 37.02 175.47 35.36 164.85 29.53 164.94 31.37"/><polygon class="cls-18" points="164.86 34.11 175.65 39.9 175.79 38.23 164.75 32.26 164.86 34.11"/><polygon class="cls-18" points="164.89 37.01 175.38 42.7 175.53 41.03 164.8 35.17 164.89 37.01"/><polygon class="cls-18" points="164.68 39.96 175.36 45.72 175.5 44.05 164.57 38.12 164.68 39.96"/><polygon class="cls-18" points="164.78 42.89 175.46 48.64 175.6 46.98 164.68 41.05 164.78 42.89"/><polygon class="cls-18" points="164.51 45.99 175.19 51.74 175.33 50.08 164.41 44.15 164.51 45.99"/><polygon class="cls-18" points="164.61 48.91 175.29 54.67 175.43 53 164.51 47.07 164.61 48.91"/><polygon class="cls-18" points="164.51 51.75 175.48 57.6 175.61 55.93 164.39 49.9 164.51 51.75"/><polygon class="cls-18" points="164.64 54.69 175.6 60.54 175.73 58.87 164.52 52.84 164.64 54.69"/><polygon class="cls-19" points="52.76 83.68 52.95 54.82 64.72 61.64 64.91 89.75 52.76 83.68"/><polygon class="cls-20" points="83.39 100.57 83.53 72.4 99.81 81.52 100.23 109.28 83.39 100.57"/><path class="cls-21" d="M1.76,156.32l33.12-19.16s2.37-1.06,3.59-.38,19.69,11.3,19.69,11.3,1.84,1.6-.23,2.14-32.74,19.31-32.74,19.31-.84.91-4.27-.61S1.07,156.63,1.07,156.63Z" transform="translate(0 -26)"/></svg>