<svg id="_x31_px" enable-background="new 0 0 24 24" height="512" viewBox="0 0 24 24" width="512" xmlns="http://www.w3.org/2000/svg"><path d="m12 24c-.068 0-.136-.014-.199-.042l-11.5-5c-.183-.079-.301-.259-.301-.458v-13c0-.276.224-.5.5-.5s.5.224.5.5v12.672l11 4.782 11-4.782v-12.672c0-.276.224-.5.5-.5s.5.224.5.5v13c0 .199-.118.379-.301.458l-11.5 5c-.063.028-.131.042-.199.042z"/><path d="m12 11c-.068 0-.136-.014-.199-.042l-11.5-5c-.183-.079-.301-.259-.301-.458s.118-.379.301-.458l11.5-5c.127-.056.271-.056.398 0l11.5 5c.183.079.301.259.301.458s-.118.379-.301.458l-11.5 5c-.063.028-.131.042-.199.042zm-10.246-5.5 10.246 4.455 10.246-4.455-10.246-4.455z"/><path d="m23.5 19c-.066 0-.135-.013-.199-.042l-.917-.399c-.254-.11-.369-.405-.259-.658.108-.253.406-.368.657-.259l.917.399c.254.11.369.405.259.658-.081.189-.266.301-.458.301z"/><path d="m20.353 17.631c-.066 0-.135-.013-.199-.042l-1.487-.646c-.253-.11-.369-.405-.26-.658.11-.253.407-.37.658-.259l1.487.646c.253.11.369.405.26.658-.083.189-.267.301-.459.301zm-3.718-1.616c-.066 0-.135-.013-.199-.042l-1.487-.646c-.253-.11-.369-.405-.26-.658.11-.253.407-.37.658-.259l1.487.646c.253.11.369.405.26.658-.082.189-.267.301-.459.301z"/><path d="m12.917 14.399c-.066 0-.135-.013-.199-.042l-.718-.312-.718.312c-.251.11-.549-.006-.657-.259-.11-.253.005-.548.259-.658l.917-.399c.127-.056.271-.056.398 0l.917.399c.254.11.369.405.259.658-.081.189-.266.301-.458.301z"/><path d="m3.647 17.631c-.192 0-.377-.112-.459-.301-.109-.253.007-.548.26-.658l1.487-.646c.252-.111.548.006.658.259.109.253-.007.548-.26.658l-1.486.647c-.065.028-.133.041-.2.041zm3.718-1.616c-.192 0-.377-.112-.459-.301-.109-.253.007-.548.26-.658l1.487-.646c.252-.11.548.006.658.259.109.253-.007.548-.26.658l-1.487.646c-.064.029-.132.042-.199.042z"/><path d="m.5 19c-.192 0-.377-.112-.458-.301-.11-.253.005-.547.259-.658l.917-.399c.251-.109.548.006.657.259.11.253-.005.548-.259.658l-.917.399c-.064.029-.133.042-.199.042z"/><path d="m12 24c-.276 0-.5-.224-.5-.5v-13c0-.276.224-.5.5-.5s.5.224.5.5v13c0 .276-.224.5-.5.5z"/><path d="m12 9.5c-.276 0-.5-.224-.5-.5v-1.5c0-.276.224-.5.5-.5s.5.224.5.5v1.5c0 .276-.224.5-.5.5zm0-3.5c-.276 0-.5-.224-.5-.5v-1.5c0-.276.224-.5.5-.5s.5.224.5.5v1.5c0 .276-.224.5-.5.5zm0-3.5c-.276 0-.5-.224-.5-.5v-1.5c0-.276.224-.5.5-.5s.5.224.5.5v1.5c0 .276-.224.5-.5.5z"/></svg>